<?xml version="1.0" standalone="no"?><!DOCTYPE svg PUBLIC "-//W3C//DTD SVG 1.1//EN" "http://www.w3.org/Graphics/SVG/1.1/DTD/svg11.dtd"><svg t="1634895975379" class="icon" viewBox="0 0 1024 1024" version="1.1" xmlns="http://www.w3.org/2000/svg" p-id="1345" xmlns:xlink="http://www.w3.org/1999/xlink" width="200" height="200"><defs><style type="text/css"></style></defs><path d="M429.84448 1024c41.53856 0 68.44416-4.72064 80.7168-14.16192l-1.41312-5.66272 5.77536-5.78048 2.71872-2.7136 33.98656 4.2496c2.83136-2.83648 8.4992-5.66784 16.99328-8.4992h7.08096l2.48832-10.05056 0.51712-0.59904c0.58368-0.6656 1.20832-1.36192 1.8688-2.0992l1.0752-1.16736 0.60416-0.49152a8675.6352 8675.6352 0 0 0 17.8176-14.75584l1.88416-1.57184 2.06336-0.41984 0.59392-1.792 1.45408-1.21856a339.79904 339.79904 0 0 0 6.17472-5.23264l0.27648-0.256h1.41312c-0.94208 11.33056-10.8544 24.5504-29.73696 39.6544l19.82464-8.4992-4.2496-1.41312 1.41824-2.83136 2.83136-2.83648h2.83136l1.41824 7.08096c9.44128-11.32544 16.52224-20.29568 21.24288-26.9056l7.07584-1.41312 2.83648-4.2496 5.66272 1.41824c9.44128-9.44128 16.04608-14.16192 19.82464-14.16192s9.20576-3.072 16.2816-9.20576c7.08608-6.13376 14.40256-8.73472 21.95456-7.78752 47.20128-33.98656 83.54816-90.15808 109.03552-168.51456 22.656-65.13664 33.98656-132.63872 33.98656-202.496 0-58.53184-10.38336-126.03392-31.1552-202.50112-22.656-88.73984-50.7392-147.97824-84.25472-177.7152-33.51552-29.74208-54.9888-53.57568-64.43008-71.51616-2.83648-4.72064-7.08096-22.18496-12.7488-52.39296-4.72064-23.6032-11.32544-36.81792-19.82464-39.64928l-9.91232 2.83136-19.82464-7.08096-5.66272 5.66272L584.192 0.1792c-16.99328 0-27.8528 0.47104-32.56832 1.41312-8.4992-2.83136-28.32384-1.88928-59.47392 2.83136-20.77184 3.77856-41.53856 13.69088-62.3104 29.73696-10.38336 7.55712-26.9056 23.13216-49.5616 46.73024-50.97984 52.86912-88.2688 100.0704-111.872 141.60896-25.48736 44.36992-46.73024 100.0704-63.72352 167.09632C187.6992 456.6272 179.2 510.4384 179.2 551.02976c0 220.90752 50.97984 366.29504 152.9344 436.15232 33.98656 24.54528 66.56 36.81792 97.71008 36.81792z m66.56-77.88544c-42.48576-37.76-76.47232-84.96128-101.95968-141.60384-25.49248-56.64768-38.23616-113.29024-38.23616-169.9328 0-174.64832 33.51552-283.68384 100.54144-327.1168-1.88928-10.37824 5.19168-25.9584 21.24288-46.72512 14.16192-12.27264 25.01632-23.6032 32.56832-33.98656h9.91232c48.14848 57.58464 76.4672 93.93152 84.9664 109.03552 17.93536 31.1552 31.62624 75.99616 41.0624 134.528 6.60992 45.312 9.91744 80.7168 9.91744 106.20928 0 77.4144-13.21984 144.91136-39.6544 202.496-23.6032 53.8112-63.72352 109.51168-120.36608 167.09632z m70.79936 24.07424c-2.83136-3.77344-10.8544-9.44128-24.07424-16.99328l1.41824-4.2496c2.83136-1.88416 5.66272-2.83136 8.4992-2.83136 7.552-6.6048 12.74368-11.56096 15.57504-14.86848 2.83136-3.3024 5.66272-7.78752 8.4992-13.45024 7.54688-6.60992 14.62784-10.38848 21.23776-11.33056 0 1.88928 0.94208 1.88928 2.83136 0h2.83136v-2.83136l1.41824-2.83136h4.2496l1.41312-2.83136c0-0.9472 2.36032-3.30752 7.08096-7.08096 4.72064-7.552 9.44128-12.7488 14.16192-15.58016 0.94208-6.6048 2.3552-10.8544 4.2496-12.74368l2.83136-1.41312h5.66272l-1.41824-4.2496 1.41824-1.41824 4.2496 1.41824c4.72064-3.77856 8.02304-6.13888 9.91232-7.08096v1.41824c-16.0512 31.15008-48.14848 67.49696-96.29696 109.03552 23.6032-18.88256 38.23616-28.32384 43.89888-28.32384l-39.64928 38.23616z m-26.9056-18.4064l-5.66272-5.66784 28.31872-19.82464a436.85376 436.85376 0 0 0-21.23776 19.82464l-1.25952 5.03808-0.1536 0.62976z m35.4048 32.5632l-7.08096-7.07584 49.5616-43.89888 1.41824 4.2496c-6.60992 2.83136-11.8016 10.38336-15.58016 22.656l0.59392-1.792-0.32768 0.27136-1.9968 1.66912-0.3328 0.27136-5.0176 0.9984a560.83456 560.83456 0 0 0-14.24896 14.68416l-1.03424 1.13664-3.1232 2.5856-0.34304 1.28-1.11104 1.29024-1.3824 1.67936z" fill="#ffffff" p-id="1346"></path></svg>