<?xml version="1.0" standalone="no"?><!DOCTYPE svg PUBLIC "-//W3C//DTD SVG 1.1//EN" "http://www.w3.org/Graphics/SVG/1.1/DTD/svg11.dtd"><svg t="1634895996014" class="icon" viewBox="0 0 1024 1024" version="1.1" xmlns="http://www.w3.org/2000/svg" p-id="1548" xmlns:xlink="http://www.w3.org/1999/xlink" width="200" height="200"><defs><style type="text/css"></style></defs><path d="M642.120246 891.371042l-1.42843-2.85174c3.804027-3.804027 5.944112-6.420255 6.420255-7.843566l0.102396-0.230392 0.614379-0.486383c0 0.127996 0.015359 0.076797 0.051198-0.153594l0.030719-0.332789 0.450544-0.404465a3.512197 3.512197 0 0 1 1.023965-0.399346l1.290194-0.133116 4.280171-25.670781c0.952287-1.904573 2.85174-3.327884 5.70348-4.28017l2.85174 4.28017c-8.555221 21.861635-15.687131 34.702145-21.390611 38.501052z m-12.835391 7.126791h-7.13191c9.507507-20.914468 18.538871-36.125456 27.099211-45.632963l1.42331-1.42843v1.42843c-1.520587 15.210988-2.431915 24.032439-2.733984 26.469473l-0.030719 0.138235-0.307189 0.266231-0.383987 0.706535-6.527771 5.222218c0.793572 0.788452 0.102396 1.582025-2.078647 2.375596l-1.484748 0.476144c-3.327884 0.947167-5.938992 4.27505-7.843566 9.98365z m-31.374262 7.13191l28.522522-44.209653v5.703481c-14.263821 24.723615-23.771328 37.559005-28.522522 38.506172z m-71.308864 98.402956c38.982316-33.278835 61.325214-51.341563 67.028694-54.193303v2.85174l-9.983651 15.687131c19.015014-25.665662 38.030029-38.501052 57.045044-38.501053a570.931697 570.931697 0 0 1-77.007225 88.419306c29.469689-15.210988 62.748524-49.918253 99.826266-104.106437-2.85174-1.904573-2.85174-4.28017 0-7.13191 2.85174-1.904573 6.179624-2.85174 9.983651-2.85174l5.70348-15.687131v-1.42843h2.85174v4.28017h5.7086c-19.967301 39.934602-49.918253 79.864085-89.852855 119.793567l0.230392-0.240631 3.911543-3.824506c17.745299-17.079722 32.987005-27.380802 45.73536-30.898119l2.892698-0.691176-4.27505 14.263821c6.655767-15.210988 24.718495-35.178289 54.193303-59.901904l1.42331-9.98365c21.866755-33.273715 35.178289-50.8603 39.934603-52.764873 35.173169-87.467019 54.664327-133.576125 58.468353-138.337559 23.771328-142.607489 35.654432-289.024124 35.654432-439.244786 0-41.828936-4.28017-89.371592-12.83539-142.612609-13.311534-73.213438-30.421975-113.14292-51.341563-119.798687v-1.42331c-2.85174 12.359247-4.27505 19.491158-4.275051 21.390612L753.358592 39.970441l-5.70348 7.13191-14.263821-4.27505a55.335023 55.335023 0 0 1-2.85174 7.126791l-2.85174-4.275051-1.42331 4.275051-4.28017 2.85174-8.555221-9.983651c0.947167 1.904573 0.471024 3.327884-1.42843 4.28017l-2.85174-7.13191-7.131911 5.7086-4.27505-1.42843c-0.952287 0-1.904573 1.42843-2.85686 4.28017v1.423311c-0.947167 0-1.42331 0.716775-1.42331 2.140085 0 1.42843-0.476143 2.611109-1.42843 3.568515l-9.983651-5.7086c-9.507507 9.507507-14.258701 27.099212-14.258701 52.769993 0 37.077742 1.42843 93.170499 4.280171 168.28339 2.85174 75.107771 4.27505 131.205648 4.27505 168.28339 0 90.318759-8.079077 175.891444-24.242352 256.707815-20.919588 104.57746-53.246136 181.589804-96.979645 231.026794l-7.126791 2.85686c-35.178289-8.56034-70.356578-27.099212-105.534866-55.621733-41.834056-33.278835-69.404291-78.435655-82.715825-135.480698-8.555221-34.231122-12.835391-88.419305-12.835391-162.57991 0-6.655767 1.899454-16.639418 5.70348-29.950952 3.804027-13.311534 5.227337-23.295185 4.280171-29.950951-1.42843-14.970356-2.319279-23.259346-2.677667-24.86697l-0.066557-0.189433 1.315794-9.16448c0-1.43355 0.266231-2.58551 0.803812-3.481478l0.624618-0.798692c-0.952287-7.608054-1.904573-12.835391-2.851741-15.687131l1.423311-4.28017 4.28017-4.28017-4.28017-4.275051c0-0.952287 1.42843-3.327884 4.28017-7.13191l-4.28017 5.70348c0-4.751194 0.476143-9.031364 1.42843-12.83539l4.27505-4.275051c0.952287-1.904573 2.140085-12.599879 3.568515-32.091037 1.42331-19.491158 4.515682-32.56206 9.266876-39.217827 5.7086-35.178289 8.56034-61.325214 8.56034-78.435655 0.947167-5.7086 6.891279-27.339843 17.827216-64.888609 10.930817-37.559005 16.874929-56.809532 17.822096-57.761818-1.899454-6.655767-6.655767-33.278835-14.2587-79.864085-4.756314-33.278835-11.883104-59.42064-21.390612-78.435654h-22.819041c-2.85174 2.85174-5.232457 4.756314-7.131911 5.70348l-4.28017 5.70348L335.499298 4.316009V2.887579l-1.423311 2.85174-2.85174-1.42331c0-0.952287-0.716775-0.476143-2.140085 1.42331-1.42843 1.904573-2.140085 3.804027-2.140085 5.703481-2.85174 0-6.179624-0.471024-9.983651-1.423311l-2.85174 2.851741-2.85174-1.42843V10.019489l-1.42331 1.423311a436.618318 436.618318 0 0 0-32.091037 7.13191c-10.930817 2.85174-19.250526 8.555221-24.959126 17.115561-17.110441 23.766208-33.278835 84.139135-48.484703 181.118781C190.987235 301.42433 184.331468 366.077427 184.331468 410.763223v134.057388c0 84.615278 5.70348 151.643972 17.115561 201.080962 15.205868 66.55767 39.453339 124.549881 72.732175 173.991991 42.781223 64.647977 92.223332 99.350123 148.321208 104.106436 38.024909-12.359247 67.975861-20.443444 89.842616-24.242352 18.062728-11.412081 31.374262-20.919588 39.934602-28.522521l-0.061438 0.056318-25.614463 32.741254z" fill="#ffffff" p-id="1549"></path></svg>